<svg width="375" height="44" viewBox="0 0 375 44" fill="none" xmlns="http://www.w3.org/2000/svg">
<path d="M33.8672 32.2568C36.5552 32.2568 38.1519 30.1548 38.1519 26.5952C38.1519 25.2549 37.8955 24.127 37.4048 23.2554C36.6943 21.9004 35.4712 21.168 33.9258 21.168C31.626 21.168 30 22.7134 30 24.8813C30 26.9175 31.4648 28.397 33.479 28.397C34.7168 28.397 35.7202 27.8184 36.2183 26.8149H36.2402C36.2402 26.8149 36.2695 26.8149 36.2769 26.8149C36.2915 26.8149 36.3428 26.8149 36.3428 26.8149C36.3428 29.2319 35.4272 30.6748 33.8818 30.6748C32.9736 30.6748 32.2705 30.1768 32.0288 29.3784H30.1465C30.4614 31.1143 31.9336 32.2568 33.8672 32.2568ZM33.9331 26.8955C32.7173 26.8955 31.853 26.0312 31.853 24.8228C31.853 23.6436 32.7612 22.7427 33.9404 22.7427C35.1196 22.7427 36.0278 23.6582 36.0278 24.8521C36.0278 26.0312 35.1416 26.8955 33.9331 26.8955Z" fill="white"/>
<path d="M41.243 32.1543C41.9388 32.1543 42.4148 31.6562 42.4148 30.9971C42.4148 30.3306 41.9388 29.8398 41.243 29.8398C40.5545 29.8398 40.0711 30.3306 40.0711 30.9971C40.0711 31.6562 40.5545 32.1543 41.243 32.1543ZM41.243 26.6611C41.9388 26.6611 42.4148 26.1704 42.4148 25.5112C42.4148 24.8447 41.9388 24.354 41.243 24.354C40.5545 24.354 40.0711 24.8447 40.0711 25.5112C40.0711 26.1704 40.5545 26.6611 41.243 26.6611Z" fill="white"/>
<path d="M49.2706 32.0005H51.0797V30.0303H52.5079V28.4336H51.0797V21.4316H48.4137C46.546 24.2441 45.0592 26.5952 44.107 28.3457V30.0303H49.2706V32.0005ZM45.8575 28.3677C47.088 26.1997 48.1866 24.4639 49.1974 22.9697H49.2999V28.4775H45.8575V28.3677Z" fill="white"/>
<path d="M56.5365 32.0005H58.4262V21.4316H56.5438L53.7826 23.3652V25.1816L56.412 23.3359H56.5365V32.0005Z" fill="white"/>
<path d="M102 0H274C270.686 0 268 2.68629 268 6V6.71329C268 9.20832 268 10.4558 267.902 11.5071C266.889 22.3234 258.323 30.8887 247.507 31.9016C246.456 32 245.208 32 242.713 32H133.287C130.792 32 129.544 32 128.493 31.9016C117.677 30.8887 109.111 22.3234 108.098 11.5071C108 10.4558 108 9.20832 108 6.71329V6C108 2.68629 105.314 0 102 0Z" fill="black"/>
<g clip-path="url(#clip0_4278_6212)">
<path opacity="0.35" d="M342.667 21.8281H359.333C360.53 21.8281 361.5 22.7985 361.5 23.9951V29.9951C361.5 31.1916 360.53 32.1611 359.333 32.1611H342.667C341.47 32.1611 340.5 31.1916 340.5 29.9951V23.9951C340.5 22.7985 341.47 21.8281 342.667 21.8281Z" stroke="white"/>
<path opacity="0.4" d="M363 24.9961V28.9961C363.805 28.6573 364.328 27.8692 364.328 26.9961C364.328 26.123 363.805 25.3349 363 24.9961" fill="white"/>
<path d="M342 24.6615C342 23.9251 342.597 23.3281 343.333 23.3281H358.667C359.403 23.3281 360 23.9251 360 24.6615V29.3281C360 30.0645 359.403 30.6615 358.667 30.6615H343.333C342.597 30.6615 342 30.0645 342 29.3281V24.6615Z" fill="white"/>
<path d="M325.121 29.7316C326.397 28.6528 328.264 28.6528 329.54 29.7316C329.604 29.7897 329.642 29.8717 329.644 29.9582C329.645 30.0445 329.611 30.1282 329.55 30.1887L327.553 32.2043C327.494 32.2634 327.414 32.296 327.331 32.2961C327.248 32.2961 327.168 32.2633 327.109 32.2043L325.111 30.1887C325.05 30.128 325.016 30.0437 325.018 29.9572C325.02 29.871 325.057 29.7895 325.121 29.7316ZM322.456 27.0422C325.204 24.4861 329.46 24.4861 332.208 27.0422C332.27 27.102 332.306 27.1845 332.307 27.2707C332.308 27.3568 332.274 27.44 332.213 27.5012L331.058 28.6681C330.939 28.787 330.747 28.7897 330.625 28.674C329.723 27.8569 328.548 27.4045 327.331 27.4045C326.114 27.405 324.941 27.8573 324.039 28.674C323.917 28.7899 323.724 28.7872 323.605 28.6681L322.451 27.5012C322.39 27.4401 322.357 27.3568 322.357 27.2707C322.358 27.1845 322.394 27.102 322.456 27.0422ZM319.791 24.3576C324.006 20.3184 330.656 20.3182 334.871 24.3576C334.932 24.4175 334.966 24.4997 334.967 24.5851C334.967 24.6707 334.933 24.7529 334.873 24.8137L333.717 25.9806C333.598 26.1001 333.405 26.1014 333.284 25.9836C331.678 24.4568 329.547 23.6058 327.331 23.6056C325.115 23.6056 322.983 24.4567 321.377 25.9836C321.256 26.1016 321.063 26.1003 320.944 25.9806L319.788 24.8137C319.728 24.7529 319.694 24.6707 319.694 24.5851C319.695 24.4996 319.73 24.4175 319.791 24.3576Z" fill="white"/>
<path d="M309 24C309.552 24 310 24.4477 310 25V31.333C310 31.8853 309.552 32.333 309 32.333H308C307.448 32.333 307 31.8853 307 31.333V25C307 24.4477 307.448 24 308 24H309ZM313.667 21.6641C314.219 21.6641 314.667 22.1118 314.667 22.6641V31.3311C314.667 31.8832 314.219 32.3311 313.667 32.3311H312.667C312.115 32.3311 311.667 31.8832 311.667 31.3311V22.6641C311.667 22.1118 312.115 21.6641 312.667 21.6641H313.667ZM299.667 28.3281C300.219 28.3281 300.667 28.7758 300.667 29.3281V31.3281C300.667 31.8804 300.219 32.3281 299.667 32.3281H298.667C298.115 32.3281 297.667 31.8804 297.667 31.3281V29.3281C297.667 28.7758 298.115 28.3281 298.667 28.3281H299.667ZM304.334 26.3281C304.886 26.3281 305.334 26.7758 305.334 27.3281V31.3281C305.334 31.8804 304.886 32.3281 304.334 32.3281H303.334C302.782 32.3281 302.334 31.8804 302.334 31.3281V27.3281C302.334 26.7758 302.782 26.3281 303.334 26.3281H304.334Z" fill="white"/>
</g>
<defs>
<clipPath id="clip0_4278_6212">
<rect width="66" height="37" fill="white" transform="translate(298)"/>
</clipPath>
</defs>
</svg>
